<?xml version="1.0" encoding="UTF-8" standalone="no"?>
<!DOCTYPE svg PUBLIC "-//W3C//DTD SVG 1.1//EN" "http://www.w3.org/Graphics/SVG/1.1/DTD/svg11.dtd">
<svg width="100%" height="100%" viewBox="0 0 412 643" version="1.1" xmlns="http://www.w3.org/2000/svg" xmlns:xlink="http://www.w3.org/1999/xlink" xml:space="preserve" xmlns:serif="http://www.serif.com/" style="fill-rule:evenodd;clip-rule:evenodd;stroke-linejoin:round;stroke-miterlimit:2;">
    <g transform="matrix(1,0,0,1,-334.692,-218.771)">
        <g>
            <clipPath id="_clip1">
                <rect x="334.692" y="218.771" width="411.308" height="642.638"/>
            </clipPath>
            <g clip-path="url(#_clip1)">
                <path d="M683.976,795.956C725.966,750.391 745.349,690.125 730.244,628.128C723.915,601.065 711.261,573.933 691.531,554.335C620.428,482.968 478.235,521.891 453.397,620.244C429.39,700.833 502.433,795.388 582.972,761.941C607.956,750.812 627.174,727.157 635.021,701.18C649.161,658.604 630.3,599.715 581.021,596.17C560.687,594.363 538.166,603.122 527.866,621.448C515.051,643.897 523.465,677.398 547.247,682.399C554.642,683.701 563.462,682.633 567.382,676.059C570.645,670.189 568.01,661.136 567.955,655.325C567.765,650.966 569.965,649.163 574.775,650.549C588.719,654.916 595.951,673.823 593.265,687.887C588.11,719.228 547.838,730.723 518.469,712.841C494.999,699.284 487.571,666.634 489.062,639.525C489.818,589.287 527.059,560.27 575.731,563.968C619.223,566.315 665.7,589.969 672.706,635.124C683.405,695.106 644.532,769.802 586.357,785.875C565.286,791.632 542.465,789.727 521.774,783.185C435.131,755.804 405.748,653.383 395.96,569.718C393.337,554.321 387.263,535.355 373.253,528.722C360.737,522.145 345.259,530.314 339.479,543.439C327.814,570.918 340.824,610.236 343.305,640.659C349.749,697.817 363.342,740.353 397.826,785.225C414.436,807.405 435.004,828.672 459.175,841.694C530.918,881.488 627.773,858.347 683.486,796.49L683.976,795.956Z" style="fill:rgb(11,10,11);fill-rule:nonzero;"/>
                <path d="M536.288,371.66C536.364,389.611 536.921,415.641 536.445,435.902C535.652,466.027 523.467,500.466 559.857,493.53C595.144,487.179 592.316,458.363 589.727,427.097C588.878,414.387 588.167,401.48 587.746,388.787C585.886,348.952 591.033,310.644 590.687,270.006C590.823,253.772 588.416,229.708 576.877,222.094C569.331,216.389 559.329,218.468 552.636,225.004C542.935,234.58 539.654,249.527 537.737,263.697C533.489,298.286 534.632,337.469 536.289,371.161L536.288,371.66Z" style="fill:rgb(11,10,11);fill-rule:nonzero;"/>
                <path d="M447.767,343.562C447.372,357.356 446.143,374.276 446.472,390.11C447.255,402.638 448.415,416.48 447.736,425.542C446.962,440.264 448.179,456.605 447.097,474.365C446.491,496.529 437.688,536.023 463.555,529.486C477.6,525.617 492.092,515.415 500.454,503.141C515.972,478.212 500.878,438.224 501.015,408.486C498.477,371.574 506.457,332.862 497.32,296.761C494.138,283.685 481.637,264.741 466.886,274.59C448.864,286.71 448.627,322.714 447.79,342.993L447.767,343.562Z" style="fill:rgb(11,10,11);fill-rule:nonzero;"/>
                <path d="M629.413,344.395C628.478,360.916 630.286,362.345 629.388,383.149C628.425,405.488 626.892,433.102 627.227,455.187C627.429,469.853 626.007,484.996 636.548,494.514C654.048,510.986 674.327,510.963 674.092,483.947C675.055,469.589 673.329,454.06 673.389,439.526C672.563,403.024 684.545,362.603 680.965,325.037C679.893,308.694 669.324,276.132 647.257,285.906C629.982,295.272 630.504,328.225 629.451,343.918L629.413,344.395Z" style="fill:rgb(11,10,11);fill-rule:nonzero;"/>
                <path d="M745.977,393.657C745.661,382.48 744.94,369.128 738.733,360.232C733.65,352.87 725.412,355.807 721.826,365.4L707.295,424.146C702.685,444.196 699.939,470.754 700.119,490.438C700.243,505.418 704.349,515.57 715.135,523.801C722.699,529.732 737.31,535.487 742.615,524.454C746.793,514.572 743.322,491.095 743.454,476.311C742.336,450.308 746.341,420.803 745.977,393.657Z" style="fill:rgb(11,10,11);fill-rule:nonzero;"/>
            </g>
        </g>
    </g>
</svg>
